<svg xmlns="http://www.w3.org/2000/svg" width="634" height="365" viewBox="0 0 634 365" fill="none">
<path d="M22.24 80V24H27.84L50.88 78.32L74 24H79.44V80H74.64V26.64L51.84 80H49.84L27.04 26.64V80H22.24ZM106.454 80.96C102.454 80.96 99.361 80.0533 97.1744 78.24C94.9877 76.3733 93.8944 73.8667 93.8944 70.72C93.8944 67.68 94.9344 65.3067 97.0144 63.6C99.1477 61.84 101.654 60.64 104.534 60C107.468 59.3067 110.801 58.8267 114.534 58.56C118.001 58.3467 120.641 57.9733 122.454 57.44C124.268 56.9067 125.174 55.9467 125.174 54.56C125.174 51.0933 124.001 48.2933 121.654 46.16C119.308 43.9733 116.321 42.88 112.694 42.88C109.014 42.88 105.974 43.92 103.574 46C101.228 48.0267 99.761 50.88 99.1744 54.56H95.0944C95.4677 51.36 96.4544 48.6133 98.0544 46.32C99.6544 44.0267 101.708 42.2667 104.214 41.04C106.774 39.8133 109.628 39.2 112.774 39.2C116.028 39.2 118.881 39.8667 121.334 41.2C123.841 42.48 125.788 44.32 127.174 46.72C128.561 49.12 129.254 51.9467 129.254 55.2V76.08H135.174V80H125.254V67.6C124.028 71.6 121.708 74.8267 118.294 77.28C114.881 79.7333 110.934 80.96 106.454 80.96ZM108.054 77.36C111.254 77.36 114.161 76.64 116.774 75.2C119.388 73.7067 121.441 71.7333 122.934 69.28C124.428 66.8267 125.174 64.1333 125.174 61.2L125.254 57.68C124.454 58.3733 123.334 58.88 121.894 59.2C120.454 59.52 118.534 59.7867 116.134 60C115.974 60 115.814 60.0267 115.654 60.08C115.494 60.08 115.334 60.08 115.174 60.08C109.308 60.5067 105.014 61.4667 102.294 62.96C99.6277 64.4533 98.2944 66.6667 98.2944 69.6C98.2944 72.1067 99.1744 74.0267 100.934 75.36C102.694 76.6933 105.068 77.36 108.054 77.36ZM146.332 80V23.2H150.652V59.2H157.852L174.572 40H179.452L162.092 59.76L179.692 80H174.332L157.692 60.8H150.652V80H146.332ZM204.693 80.8C200.799 80.8 197.253 79.8933 194.053 78.08C190.906 76.2667 188.399 73.7867 186.533 70.64C184.719 67.4933 183.813 63.9733 183.813 60.08C183.813 56.1867 184.719 52.64 186.533 49.44C188.399 46.24 190.933 43.7333 194.133 41.92C197.333 40.1067 200.853 39.2 204.693 39.2C208.533 39.2 212.026 40.1067 215.173 41.92C218.373 43.7333 220.879 46.24 222.693 49.44C224.506 52.5867 225.413 56.1067 225.413 60C225.413 60.1067 225.413 60.24 225.413 60.4C225.413 60.56 225.413 60.6933 225.413 60.8H188.133C188.239 63.84 189.039 66.5867 190.533 69.04C192.026 71.44 193.999 73.3333 196.453 74.72C198.959 76.1067 201.706 76.8 204.693 76.8C208.159 76.8 211.226 76 213.893 74.4C216.559 72.8 218.373 70.6933 219.333 68.08H223.973C223.333 70.48 222.106 72.64 220.293 74.56C218.479 76.48 216.213 78 213.493 79.12C210.826 80.24 207.893 80.8 204.693 80.8ZM221.253 59.2C221.146 56.16 220.346 53.44 218.853 51.04C217.413 48.5867 215.439 46.6667 212.933 45.28C210.479 43.8933 207.759 43.2 204.773 43.2C201.733 43.2 198.959 43.8933 196.453 45.28C193.999 46.6667 192.026 48.5867 190.533 51.04C189.039 53.44 188.239 56.16 188.133 59.2H221.253ZM252.806 80.8C249.286 80.8 246.246 80.0267 243.686 78.48C241.126 76.9333 239.153 74.6933 237.766 71.76C236.433 68.8267 235.766 65.3333 235.766 61.28V40H240.086L240.166 60.8C240.166 65.7067 241.42 69.6 243.926 72.48C246.486 75.3067 249.953 76.72 254.326 76.72C256.993 76.72 259.42 76.0267 261.606 74.64C263.846 73.2533 265.58 71.36 266.806 68.96C268.086 66.5067 268.726 63.7867 268.726 60.8V40H273.046V80H268.726V68C267.553 71.8933 265.553 75.0133 262.726 77.36C259.9 79.6533 256.593 80.8 252.806 80.8ZM289.379 96V40H293.699V52.56C295.032 48.56 297.245 45.3333 300.339 42.88C303.432 40.4267 307.059 39.2 311.219 39.2C314.739 39.2 317.939 40.1333 320.819 42C323.752 43.8133 326.045 46.32 327.699 49.52C329.352 52.6667 330.179 56.16 330.179 60C330.179 63.84 329.352 67.36 327.699 70.56C326.045 73.7067 323.752 76.2133 320.819 78.08C317.939 79.8933 314.739 80.8 311.219 80.8C307.059 80.8 303.432 79.5733 300.339 77.12C297.245 74.6667 295.032 71.4133 293.699 67.36V96H289.379ZM309.699 76.72C312.685 76.72 315.405 76 317.859 74.56C320.312 73.0667 322.232 71.04 323.619 68.48C325.059 65.92 325.779 63.0933 325.779 60C325.779 56.9067 325.059 54.08 323.619 51.52C322.232 48.96 320.312 46.96 317.859 45.52C315.405 44.0267 312.685 43.28 309.699 43.28C306.712 43.28 303.992 44.0267 301.539 45.52C299.085 46.96 297.139 48.96 295.699 51.52C294.312 54.08 293.619 56.9067 293.619 60C293.619 63.0933 294.312 65.92 295.699 68.48C297.139 71.04 299.085 73.0667 301.539 74.56C303.992 76 306.712 76.72 309.699 76.72ZM355.468 80L378.908 24H385.148L408.508 80H403.388L396.028 62.24H367.948L360.428 80H355.468ZM368.508 60.72H395.388L382.028 28.96L368.508 60.72ZM417.66 80V40H421.98V52.16C423.047 48.3733 424.887 45.28 427.5 42.88C430.167 40.4267 433.26 39.2 436.78 39.2C439.553 39.2 441.9 39.7867 443.82 40.96C445.74 42.08 447.18 43.7333 448.14 45.92C449.153 48.1067 449.66 50.7467 449.66 53.84V56.08H445.34V54.48C445.34 50.9067 444.46 48.16 442.7 46.24C440.94 44.32 438.433 43.36 435.18 43.36C432.78 43.36 430.567 44.08 428.54 45.52C426.513 46.9067 424.913 48.8267 423.74 51.28C422.567 53.68 421.98 56.32 421.98 59.2V80H417.66ZM476.984 80.8C472.291 80.8 468.798 79.7067 466.504 77.52C464.211 75.3333 463.064 72.1067 463.064 67.84V44H453.064V40H461.464C462.104 40 462.584 39.8133 462.904 39.44C463.278 39.0667 463.464 38.5867 463.464 38V30.4H467.544L467.384 40H485.784V44H467.384V67.04C467.384 70.3467 468.211 72.8 469.864 74.4C471.571 75.9467 474.158 76.72 477.624 76.72C479.971 76.72 482.691 76.2933 485.784 75.44V79.36C484.504 79.7333 483.011 80.0533 481.304 80.32C479.651 80.64 478.211 80.8 476.984 80.8ZM497.113 80V40H501.433V80H497.113ZM498.873 33.84L496.393 20.4H502.153L499.673 33.84H498.873ZM532.138 80.88C526.911 80.88 522.485 79.68 518.858 77.28C515.231 74.8267 513.125 71.2533 512.538 66.56H516.938C517.525 70.08 519.205 72.72 521.978 74.48C524.805 76.24 528.111 77.12 531.898 77.12C533.765 77.12 535.658 76.8533 537.578 76.32C539.498 75.7867 541.098 74.9067 542.378 73.68C543.711 72.4533 544.378 70.9067 544.378 69.04C544.378 67.2267 543.845 65.8133 542.778 64.8C541.765 63.7333 540.405 62.96 538.698 62.48C537.045 61.9467 534.751 61.44 531.818 60.96C531.551 60.9067 531.231 60.8533 530.858 60.8C530.538 60.7467 530.245 60.6933 529.978 60.64C526.351 60.1067 523.445 59.52 521.258 58.88C519.071 58.24 517.285 57.28 515.898 56C514.511 54.6667 513.818 52.8533 513.818 50.56C513.818 48 514.565 45.8667 516.058 44.16C517.605 42.4 519.605 41.12 522.058 40.32C524.565 39.52 527.258 39.12 530.138 39.12C535.098 39.12 539.231 40.3467 542.538 42.8C545.845 45.2 547.738 48.6667 548.218 53.2H543.898C543.471 49.7333 541.978 47.1467 539.418 45.44C536.858 43.7333 533.765 42.88 530.138 42.88C527.045 42.88 524.271 43.5733 521.818 44.96C519.365 46.3467 518.138 48.5067 518.138 51.44C518.138 52.9867 518.591 54.24 519.498 55.2C520.458 56.16 521.738 56.9333 523.338 57.52C524.938 58.0533 526.965 58.5067 529.418 58.88C529.845 58.9333 530.245 59.0133 530.618 59.12C530.991 59.1733 531.391 59.2267 531.818 59.28C531.978 59.3333 532.138 59.36 532.298 59.36C532.458 59.36 532.645 59.3867 532.858 59.44C536.378 59.9733 539.205 60.5867 541.338 61.28C543.471 61.9733 545.205 63.0133 546.538 64.4C547.871 65.7333 548.538 67.5733 548.538 69.92C548.538 72.4267 547.711 74.5067 546.058 76.16C544.458 77.76 542.405 78.96 539.898 79.76C537.391 80.5067 534.805 80.88 532.138 80.88ZM577.297 80.8C572.604 80.8 569.11 79.7067 566.817 77.52C564.524 75.3333 563.377 72.1067 563.377 67.84V44H553.377V40H561.777C562.417 40 562.897 39.8133 563.217 39.44C563.59 39.0667 563.777 38.5867 563.777 38V30.4H567.857L567.697 40H586.097V44H567.697V67.04C567.697 70.3467 568.524 72.8 570.177 74.4C571.884 75.9467 574.47 76.72 577.937 76.72C580.284 76.72 583.004 76.2933 586.097 75.44V79.36C584.817 79.7333 583.324 80.0533 581.617 80.32C579.964 80.64 578.524 80.8 577.297 80.8Z" fill="#AD0F81"/>
<path d="M23.8 280V140H42.4L126.2 272.2V140H144.2V280H125.8L41.8 147.8V280H23.8ZM187.169 280V180H203.169V280H187.169ZM194.169 165.8L184.969 131H205.569L196.169 165.8H194.169ZM279.661 282.4C265.794 282.4 254.194 279.2 244.861 272.8C235.661 266.4 230.394 257.267 229.061 245.4H245.461C246.661 253.267 250.394 259.2 256.661 263.2C262.928 267.067 270.394 269 279.061 269C283.328 269 287.594 268.4 291.861 267.2C296.128 266 299.728 264 302.661 261.2C305.594 258.4 307.061 254.867 307.061 250.6C307.061 246.6 305.861 243.4 303.461 241C301.194 238.6 298.061 236.8 294.061 235.6C290.061 234.4 284.594 233.267 277.661 232.2C276.861 232.067 276.061 231.933 275.261 231.8C274.461 231.667 273.594 231.533 272.661 231.4C263.728 230.067 256.394 228.6 250.661 227C245.061 225.267 240.594 222.8 237.261 219.6C234.061 216.4 232.461 212 232.461 206.4C232.461 200.133 234.394 194.867 238.261 190.6C242.128 186.2 247.194 182.933 253.461 180.8C259.861 178.667 266.928 177.6 274.661 177.6C287.994 177.6 298.928 180.8 307.461 187.2C315.994 193.467 320.794 202.533 321.861 214.4H306.061C305.128 206.667 301.794 200.867 296.061 197C290.328 193.133 283.394 191.2 275.261 191.2C268.194 191.2 261.928 192.8 256.461 196C251.128 199.067 248.461 203.8 248.461 210.2C248.461 213.667 249.528 216.6 251.661 219C253.794 221.267 256.794 223.067 260.661 224.4C264.528 225.6 269.394 226.733 275.261 227.8C276.328 227.933 277.328 228.067 278.261 228.2C279.194 228.333 280.194 228.467 281.261 228.6C281.794 228.733 282.261 228.8 282.661 228.8C283.061 228.8 283.528 228.867 284.061 229C292.594 230.333 299.528 231.867 304.861 233.6C310.328 235.333 314.594 237.933 317.661 241.4C320.861 244.733 322.461 249.133 322.461 254.6C322.461 260.733 320.394 265.933 316.261 270.2C312.128 274.333 306.794 277.4 300.261 279.4C293.861 281.4 286.994 282.4 279.661 282.4ZM350.645 280V138H366.645V211.4C369.179 201.267 373.912 193.2 380.845 187.2C387.779 181.067 395.912 178 405.245 178C413.645 178 420.912 179.933 427.045 183.8C433.312 187.667 438.045 193.2 441.245 200.4C444.579 207.467 446.245 215.867 446.245 225.6V280H430.245V227.8C430.245 217.133 427.379 208.667 421.645 202.4C416.045 196.133 408.312 193 398.445 193C392.579 193 387.179 194.533 382.245 197.6C377.445 200.667 373.645 204.867 370.845 210.2C368.045 215.533 366.645 221.4 366.645 227.8V280H350.645ZM503.677 282.4C494.077 282.4 486.543 280.133 481.077 275.6C475.61 271.067 472.877 264.867 472.877 257C472.877 249.267 475.41 243.267 480.477 239C485.677 234.733 491.877 231.8 499.077 230.2C506.277 228.467 514.477 227.267 523.677 226.6C531.677 226.067 537.81 225.133 542.077 223.8C546.477 222.467 548.677 220.067 548.677 216.6C548.677 208.867 546.077 202.733 540.877 198.2C535.677 193.533 529.143 191.2 521.277 191.2C513.01 191.2 506.21 193.533 500.877 198.2C495.543 202.733 492.277 209.067 491.077 217.2H476.077C476.877 209.067 479.277 202.067 483.277 196.2C487.41 190.2 492.743 185.667 499.277 182.6C505.943 179.533 513.343 178 521.477 178C529.743 178 537.01 179.6 543.277 182.8C549.677 186 554.61 190.667 558.077 196.8C561.677 202.933 563.477 210.067 563.477 218.2V265.8H577.277V280H548.877V247.4C545.943 257.8 540.477 266.267 532.477 272.8C524.477 279.2 514.877 282.4 503.677 282.4ZM510.477 269.6C517.677 269.6 524.143 267.933 529.877 264.6C535.743 261.133 540.343 256.6 543.677 251C547.01 245.267 548.677 239.133 548.677 232.6L548.877 224.6C547.01 226.2 544.41 227.4 541.077 228.2C537.877 229 533.543 229.6 528.077 230C527.81 230 527.477 230.067 527.077 230.2C526.677 230.2 526.343 230.2 526.077 230.2C513.41 231.267 504.077 233.533 498.077 237C492.077 240.333 489.077 245.333 489.077 252C489.077 257.733 491.01 262.133 494.877 265.2C498.743 268.133 503.943 269.6 510.477 269.6Z" fill="#AD0F81"/>
</svg>